<svg width="834" height="317" viewBox="0 0 834 317" fill="none" xmlns="http://www.w3.org/2000/svg">
<path d="M92.2718 270.059C86.119 272.886 73.9647 277.525 59.603 277.525C43.5035 277.525 30.248 272.281 19.8366 259.562C10.6831 248.26 5 230.102 5 208.91C5.16165 168.34 26.9392 138.673 62.6036 138.673C74.9145 138.673 84.5429 142.106 89.1196 144.929L85.8057 159.261C80.1227 156.027 73.0251 153.403 62.2905 153.403C36.4059 153.403 19.5184 173.99 19.5184 208.097C19.5184 242.204 35.7745 262.99 60.5527 262.99C69.5496 262.99 75.7025 261.382 78.8598 259.363V218.793H57.2388V204.669H92.2718V270.059Z" fill="white" stroke="white" stroke-width="10" stroke-miterlimit="10"/>
<path d="M112.786 208.91C112.786 197.405 112.625 187.514 112.155 178.435H124.309L124.784 197.609H125.416C128.886 184.487 137.252 176.213 146.567 176.213C148.143 176.213 149.249 176.412 150.512 176.818V193.575C149.093 193.169 147.668 192.961 145.774 192.961C135.989 192.961 129.043 202.447 127.148 215.771C126.835 218.188 126.517 221.015 126.517 224.041V276.115H112.786V208.91Z" fill="white" stroke="white" stroke-width="10" stroke-miterlimit="10"/>
<path d="M177.841 230.505C178.159 254.525 190.152 264.408 204.039 264.408C213.981 264.408 219.982 262.186 225.19 259.367L227.559 272.078C222.664 274.905 214.299 278.13 202.15 278.13C178.634 278.13 164.591 258.351 164.591 228.892C164.591 199.433 178.165 176.213 200.417 176.213C225.352 176.213 231.979 204.267 231.979 222.234C231.979 225.861 231.666 228.689 231.505 230.505H177.846H177.841ZM218.562 217.79C218.719 206.484 214.935 188.927 199.311 188.927C185.262 188.927 179.109 205.477 178.003 217.79H218.567H218.562Z" fill="white" stroke="white" stroke-width="10" stroke-miterlimit="10"/>
<path d="M264.204 230.505C264.522 254.525 276.515 264.408 290.401 264.408C300.343 264.408 306.344 262.186 311.553 259.367L313.922 272.078C309.027 274.905 300.661 278.13 288.512 278.13C264.997 278.13 250.953 258.351 250.953 228.892C250.953 199.433 264.527 176.213 286.779 176.213C311.714 176.213 318.342 204.267 318.342 222.234C318.342 225.861 318.029 228.689 317.867 230.505H264.209H264.204ZM304.92 217.79C305.076 206.484 301.293 188.927 285.668 188.927C271.62 188.927 265.467 205.477 264.36 217.79H304.925H304.92Z" fill="white" stroke="white" stroke-width="10" stroke-miterlimit="10"/>
<path d="M342.832 204.872C342.832 194.781 342.676 186.506 342.201 178.435H354.512L355.3 194.578H355.618C359.407 185.296 368.242 176.213 380.866 176.213C391.444 176.213 407.862 184.284 407.862 217.79V276.115H393.97V219.809C393.97 204.068 389.388 190.951 376.289 190.951C367.136 190.951 360.033 199.221 357.664 209.105C357.033 211.335 356.714 214.357 356.714 217.379V276.111H342.827V204.872H342.832Z" fill="white" stroke="white" stroke-width="10" stroke-miterlimit="10"/>
<path d="M464.344 141.907C472.704 140.29 482.651 139.08 493.548 139.08C513.274 139.08 527.318 144.929 536.628 156.027C546.094 167.129 551.621 182.871 551.621 204.872C551.621 226.873 546.251 245.23 536.315 257.746C526.373 270.457 509.96 277.322 489.279 277.322C479.499 277.322 471.285 276.717 464.339 275.713V141.907H464.344ZM478.079 262.186C481.555 262.994 486.596 263.197 491.971 263.197C521.326 263.197 537.269 242.208 537.269 205.477C537.426 173.385 523.221 153.001 494.179 153.001C487.076 153.001 481.712 153.809 478.079 154.817V262.186Z" fill="white" stroke="white" stroke-width="10" stroke-miterlimit="10"/>
<path d="M646.036 219.51C646.036 255.636 626.461 271.381 607.997 271.381C587.326 271.381 571.383 252.004 571.383 221.123C571.383 188.434 588.114 169.26 609.255 169.26C630.396 169.26 646.031 189.645 646.031 219.514L646.036 219.51ZM585.431 220.522C585.431 241.909 595.055 258.057 608.633 258.057C622.212 258.057 631.836 242.117 631.836 220.115C631.836 203.566 625.359 182.58 608.947 182.58C592.534 182.58 585.431 201.953 585.431 220.522Z" fill="white" stroke="white" stroke-width="10" stroke-miterlimit="10"/>
<path d="M736.657 171.478C736.339 178.542 736.025 186.411 736.025 198.317V255.03C736.025 277.434 732.55 291.156 725.134 299.63C717.718 308.51 706.984 311.337 697.36 311.337C687.737 311.337 678.109 308.51 671.946 303.266L675.421 289.746C680.473 293.784 688.363 297.412 697.83 297.412C712.035 297.412 722.447 287.926 722.447 263.309V252.41H722.133C717.875 261.489 709.666 268.757 697.83 268.757C678.892 268.757 665.318 248.169 665.318 221.119C665.318 188.028 682.205 169.256 699.724 169.256C712.98 169.256 720.239 178.136 723.558 186.208H723.871L724.503 171.478H736.657ZM722.29 210.025C722.29 207.003 722.133 204.378 721.507 201.953C718.976 191.659 712.192 183.181 702.089 183.181C688.833 183.181 679.366 197.517 679.366 220.115C679.366 239.289 686.939 255.229 701.932 255.229C710.459 255.229 718.188 248.372 721.184 237.067C721.977 234.045 722.29 230.612 722.29 227.582V210.025Z" fill="white" stroke="white" stroke-width="10" stroke-miterlimit="10"/>
<mask id="mask0_4014_162" style="mask-type:luminance" maskUnits="userSpaceOnUse" x="668" y="0" width="166" height="181">
<path d="M832.86 0.5V180.397H668.541V0.5H832.86Z" fill="white" stroke="white"/>
</mask>
<g mask="url(#mask0_4014_162)">
<mask id="path-10-inside-1_4014_162" fill="white">
<path d="M709 94.573C709 85.1871 716.421 77.5674 725.569 77.5674C728.383 77.5674 731.126 77.8824 733.793 78.4379C733.248 75.7059 732.945 72.891 732.945 70.0056C732.945 60.6156 740.366 53 749.519 53C754.096 53 758.238 54.907 761.239 57.9831C764.24 54.907 768.382 53 772.964 53C782.107 53 789.538 60.6156 789.538 70.0056C789.538 72.891 789.235 75.7059 788.689 78.4379C791.357 77.8824 794.1 77.5674 796.913 77.5674C806.062 77.5674 813.483 85.1788 813.483 94.573C813.483 99.27 811.624 103.519 808.628 106.6C811.624 109.68 813.483 113.929 813.483 118.63C813.483 128.012 806.057 135.632 796.913 135.632C784.951 135.632 774.126 130.363 766.28 121.86C765.952 121.499 765.654 121.105 765.341 120.732C764.113 136.092 751.292 158.491 741.27 168.773V151.622C749.888 142.779 755.273 133.679 756.561 121.425C756.435 121.566 756.329 121.719 756.202 121.856C748.357 130.371 737.537 135.628 725.569 135.628C716.421 135.628 709 128.016 709 118.622C709 113.925 710.859 109.676 713.855 106.595C710.859 103.519 709 99.27 709 94.5688V94.573ZM768.079 110.667C772.994 116.346 779.506 119.476 786.401 119.476C789.669 119.476 792.332 116.57 792.332 112.996C792.332 111.264 791.715 109.634 790.589 108.407L785.951 103.337L790.589 98.2668C791.71 97.0397 792.332 95.4104 792.332 93.6817C792.332 90.1039 789.669 87.1978 786.401 87.1978C779.5 87.1978 772.994 90.3278 768.079 96.0115C766.2 98.1714 764.639 100.63 763.401 103.337C764.639 106.04 766.205 108.494 768.079 110.667ZM758.425 98.387C759.799 95.7338 761.421 93.2629 763.305 91.0906C765.982 87.9979 769.135 85.4732 772.605 83.5993C773.686 80.5398 774.277 77.2937 774.277 73.9565C774.277 70.3829 771.615 67.4726 768.347 67.4726C766.765 67.4726 765.27 68.1484 764.149 69.3755L759.506 74.4456L754.864 69.3796C753.742 68.1525 752.252 67.4767 750.666 67.4767C747.392 67.4767 744.735 70.3829 744.735 73.9606C744.735 81.5016 747.599 88.6115 752.803 93.9801C754.48 95.713 756.389 97.1516 758.425 98.3912M728.424 108.411C727.302 109.638 726.681 111.268 726.681 112.996C726.681 116.574 729.343 119.48 732.611 119.48C739.512 119.48 746.018 116.35 750.934 110.667C752.525 108.834 753.838 106.753 754.975 104.523C752.54 103.018 750.287 101.252 748.297 99.1913C745.463 96.2686 743.154 92.8193 741.442 89.0302C738.643 87.8487 735.673 87.2019 732.616 87.2019C729.348 87.2019 726.686 90.1081 726.686 93.6858C726.686 95.4146 727.302 97.0438 728.429 98.2751L733.066 103.345L728.429 108.415L728.424 108.411Z"/>
</mask>
<path d="M709 94.573C709 85.1871 716.421 77.5674 725.569 77.5674C728.383 77.5674 731.126 77.8824 733.793 78.4379C733.248 75.7059 732.945 72.891 732.945 70.0056C732.945 60.6156 740.366 53 749.519 53C754.096 53 758.238 54.907 761.239 57.9831C764.24 54.907 768.382 53 772.964 53C782.107 53 789.538 60.6156 789.538 70.0056C789.538 72.891 789.235 75.7059 788.689 78.4379C791.357 77.8824 794.1 77.5674 796.913 77.5674C806.062 77.5674 813.483 85.1788 813.483 94.573C813.483 99.27 811.624 103.519 808.628 106.6C811.624 109.68 813.483 113.929 813.483 118.63C813.483 128.012 806.057 135.632 796.913 135.632C784.951 135.632 774.126 130.363 766.28 121.86C765.952 121.499 765.654 121.105 765.341 120.732C764.113 136.092 751.292 158.491 741.27 168.773V151.622C749.888 142.779 755.273 133.679 756.561 121.425C756.435 121.566 756.329 121.719 756.202 121.856C748.357 130.371 737.537 135.628 725.569 135.628C716.421 135.628 709 128.016 709 118.622C709 113.925 710.859 109.676 713.855 106.595C710.859 103.519 709 99.27 709 94.5688V94.573ZM768.079 110.667C772.994 116.346 779.506 119.476 786.401 119.476C789.669 119.476 792.332 116.57 792.332 112.996C792.332 111.264 791.715 109.634 790.589 108.407L785.951 103.337L790.589 98.2668C791.71 97.0397 792.332 95.4104 792.332 93.6817C792.332 90.1039 789.669 87.1978 786.401 87.1978C779.5 87.1978 772.994 90.3278 768.079 96.0115C766.2 98.1714 764.639 100.63 763.401 103.337C764.639 106.04 766.205 108.494 768.079 110.667ZM758.425 98.387C759.799 95.7338 761.421 93.2629 763.305 91.0906C765.982 87.9979 769.135 85.4732 772.605 83.5993C773.686 80.5398 774.277 77.2937 774.277 73.9565C774.277 70.3829 771.615 67.4726 768.347 67.4726C766.765 67.4726 765.27 68.1484 764.149 69.3755L759.506 74.4456L754.864 69.3796C753.742 68.1525 752.252 67.4767 750.666 67.4767C747.392 67.4767 744.735 70.3829 744.735 73.9606C744.735 81.5016 747.599 88.6115 752.803 93.9801C754.48 95.713 756.389 97.1516 758.425 98.3912M728.424 108.411C727.302 109.638 726.681 111.268 726.681 112.996C726.681 116.574 729.343 119.48 732.611 119.48C739.512 119.48 746.018 116.35 750.934 110.667C752.525 108.834 753.838 106.753 754.975 104.523C752.54 103.018 750.287 101.252 748.297 99.1913C745.463 96.2686 743.154 92.8193 741.442 89.0302C738.643 87.8487 735.673 87.2019 732.616 87.2019C729.348 87.2019 726.686 90.1081 726.686 93.6858C726.686 95.4146 727.302 97.0438 728.429 98.2751L733.066 103.345L728.429 108.415L728.424 108.411Z" fill="white"/>
<path d="M733.793 78.4379L733.59 79.4169L735.07 79.7253L734.774 78.2421L733.793 78.4379ZM761.239 57.9831L760.523 58.6814L761.239 59.4152L761.955 58.6814L761.239 57.9831ZM788.689 78.4379L787.709 78.2421L787.413 79.7253L788.893 79.4169L788.689 78.4379ZM808.628 106.6L807.911 105.902L807.233 106.6L807.911 107.297L808.628 106.6ZM766.28 121.86L765.541 122.533L765.545 122.538L766.28 121.86ZM765.341 120.732L766.107 120.089L764.538 118.221L764.344 120.653L765.341 120.732ZM741.27 168.773H740.27V171.231L741.986 169.471L741.27 168.773ZM741.27 151.622L740.554 150.924L740.27 151.215V151.622H741.27ZM756.561 121.425L757.556 121.529L757.879 118.455L755.816 120.757L756.561 121.425ZM756.202 121.856L755.468 121.177L755.467 121.178L756.202 121.856ZM713.855 106.595L714.572 107.293L715.25 106.595L714.571 105.898L713.855 106.595ZM768.079 110.667L767.322 111.32L767.323 111.321L768.079 110.667ZM790.589 108.407L789.851 109.082L789.852 109.083L790.589 108.407ZM785.951 103.337L785.214 102.662L784.596 103.337L785.214 104.012L785.951 103.337ZM790.589 98.2668L791.327 98.9417L791.327 98.9414L790.589 98.2668ZM768.079 96.0115L768.833 96.6679L768.835 96.6656L768.079 96.0115ZM763.401 103.337L762.491 102.921L762.301 103.337L762.492 103.753L763.401 103.337ZM763.305 91.0906L764.06 91.7458L764.061 91.7451L763.305 91.0906ZM772.605 83.5993L773.08 84.4793L773.419 84.2961L773.548 83.9325L772.605 83.5993ZM764.149 69.3755L764.886 70.0508L764.887 70.0501L764.149 69.3755ZM759.506 74.4456L758.769 75.1213L759.506 75.9261L760.244 75.121L759.506 74.4456ZM754.864 69.3796L754.126 70.0542L754.126 70.0552L754.864 69.3796ZM752.803 93.9801L753.521 93.2847L753.521 93.2842L752.803 93.9801ZM728.424 108.411L729.058 107.638L728.325 107.037L727.685 107.737L728.424 108.411ZM750.934 110.667L750.178 110.011L750.177 110.012L750.934 110.667ZM754.975 104.523L755.866 104.977L756.284 104.156L755.501 103.672L754.975 104.523ZM748.297 99.1913L749.016 98.4965L749.015 98.4951L748.297 99.1913ZM741.442 89.0302L742.353 88.6183L742.191 88.2613L741.831 88.1089L741.442 89.0302ZM728.429 98.2751L729.166 97.6002L729.166 97.6L728.429 98.2751ZM733.066 103.345L733.804 104.02L734.421 103.345L733.804 102.67L733.066 103.345ZM728.429 108.415L727.794 109.188L728.527 109.79L729.166 109.09L728.429 108.415ZM709 94.573H710C710 85.7146 716.998 78.5674 725.569 78.5674V77.5674V76.5674C715.844 76.5674 708 84.6596 708 94.573H709ZM725.569 77.5674V78.5674C728.308 78.5674 730.983 78.874 733.59 79.4169L733.793 78.4379L733.997 77.459C731.27 76.8909 728.458 76.5674 725.569 76.5674V77.5674ZM733.793 78.4379L734.774 78.2421C734.24 75.5699 733.945 72.8206 733.945 70.0056H732.945H731.945C731.945 72.9614 732.255 75.842 732.813 78.6338L733.793 78.4379ZM732.945 70.0056H733.945C733.945 61.1435 740.942 54 749.519 54V53V52C739.789 52 731.945 60.0878 731.945 70.0056H732.945ZM749.519 53V54C753.811 54 757.699 55.7868 760.523 58.6814L761.239 57.9831L761.955 57.2848C758.777 54.0272 754.381 52 749.519 52V53ZM761.239 57.9831L761.955 58.6814C764.778 55.7869 768.667 54 772.964 54V53V52C768.097 52 763.701 54.0271 760.523 57.2848L761.239 57.9831ZM772.964 53V54C781.531 54 788.538 61.1439 788.538 70.0056H789.538H790.538C790.538 60.0874 782.683 52 772.964 52V53ZM789.538 70.0056H788.538C788.538 72.8206 788.242 75.5699 787.709 78.2421L788.689 78.4379L789.67 78.6338C790.228 75.842 790.538 72.9614 790.538 70.0056H789.538ZM788.689 78.4379L788.893 79.4169C791.5 78.874 794.175 78.5674 796.913 78.5674V77.5674V76.5674C794.025 76.5674 791.213 76.8909 788.485 77.459L788.689 78.4379ZM796.913 77.5674V78.5674C805.485 78.5674 812.483 85.7066 812.483 94.573H813.483H814.483C814.483 84.651 806.638 76.5674 796.913 76.5674V77.5674ZM813.483 94.573H812.483C812.483 99.0018 810.731 103.003 807.911 105.902L808.628 106.6L809.345 107.297C812.517 104.036 814.483 99.5383 814.483 94.573H813.483ZM808.628 106.6L807.911 107.297C810.731 110.196 812.483 114.197 812.483 118.63H813.483H814.483C814.483 113.661 812.517 109.164 809.345 105.902L808.628 106.6ZM813.483 118.63H812.483C812.483 127.484 805.48 134.632 796.913 134.632V135.632V136.632C806.633 136.632 814.483 128.54 814.483 118.63H813.483ZM796.913 135.632V134.632C785.256 134.632 774.689 129.499 767.015 121.182L766.28 121.86L765.545 122.538C773.562 131.227 784.647 136.632 796.913 136.632V135.632ZM766.28 121.86L767.02 121.187C766.704 120.84 766.469 120.521 766.107 120.089L765.341 120.732L764.575 121.375C764.839 121.69 765.2 122.158 765.541 122.533L766.28 121.86ZM765.341 120.732L764.344 120.653C763.746 128.136 760.304 137.436 755.717 146.193C751.137 154.938 745.48 163.021 740.554 168.075L741.27 168.773L741.986 169.471C747.082 164.242 752.846 155.986 757.489 147.121C762.126 138.268 765.708 128.688 766.338 120.812L765.341 120.732ZM741.27 168.773H742.27V151.622H741.27H740.27V168.773H741.27ZM741.27 151.622L741.986 152.32C750.713 143.365 756.238 134.067 757.556 121.529L756.561 121.425L755.567 121.32C754.308 133.291 749.063 142.193 740.554 150.924L741.27 151.622ZM756.561 121.425L755.816 120.757C755.73 120.854 755.652 120.953 755.599 121.019C755.539 121.095 755.502 121.14 755.468 121.177L756.202 121.856L756.937 122.534C757.029 122.435 757.108 122.335 757.164 122.264C757.228 122.185 757.266 122.136 757.306 122.092L756.561 121.425ZM756.202 121.856L755.467 121.178C747.794 129.507 737.233 134.628 725.569 134.628V135.628V136.628C737.841 136.628 748.921 131.235 756.938 122.533L756.202 121.856ZM725.569 135.628V134.628C716.997 134.628 710 127.488 710 118.622H709H708C708 128.544 715.844 136.628 725.569 136.628V135.628ZM709 118.622H710C710 114.193 711.752 110.192 714.572 107.293L713.855 106.595L713.138 105.898C709.966 109.159 708 113.657 708 118.622H709ZM713.855 106.595L714.571 105.898C711.752 103.003 710 99.002 710 94.5688H709H708C708 99.538 709.966 104.036 713.138 107.293L713.855 106.595ZM709 94.5688H708V94.573H709H710V94.5688H709ZM768.079 110.667L767.323 111.321C772.409 117.198 779.187 120.476 786.401 120.476V119.476V118.476C779.824 118.476 773.579 115.494 768.835 110.012L768.079 110.667ZM786.401 119.476V120.476C790.303 120.476 793.332 117.037 793.332 112.996H792.332H791.332C791.332 116.103 789.036 118.476 786.401 118.476V119.476ZM792.332 112.996H793.332C793.332 111.026 792.63 109.152 791.325 107.731L790.589 108.407L789.852 109.083C790.801 110.117 791.332 111.501 791.332 112.996H792.332ZM790.589 108.407L791.327 107.732L786.689 102.662L785.951 103.337L785.214 104.012L789.851 109.082L790.589 108.407ZM785.951 103.337L786.689 104.012L791.327 98.9417L790.589 98.2668L789.851 97.5919L785.214 102.662L785.951 103.337ZM790.589 98.2668L791.327 98.9414C792.623 97.523 793.332 95.6504 793.332 93.6817H792.332H791.332C791.332 95.1704 790.797 96.5564 789.851 97.5922L790.589 98.2668ZM792.332 93.6817H793.332C793.332 89.637 790.303 86.1978 786.401 86.1978V87.1978V88.1978C789.035 88.1978 791.332 90.5709 791.332 93.6817H792.332ZM786.401 87.1978V86.1978C779.182 86.1978 772.408 89.4761 767.322 95.3574L768.079 96.0115L768.835 96.6656C773.58 91.1795 779.819 88.1978 786.401 88.1978V87.1978ZM768.079 96.0115L767.324 95.3551C765.378 97.5922 763.766 100.133 762.491 102.921L763.401 103.337L764.31 103.753C765.511 101.127 767.021 98.7507 768.833 96.6679L768.079 96.0115ZM763.401 103.337L762.492 103.753C763.767 106.539 765.384 109.073 767.322 111.32L768.079 110.667L768.836 110.013C767.026 107.915 765.51 105.541 764.31 102.921L763.401 103.337ZM758.425 98.387L759.313 98.8469C760.657 96.2528 762.235 93.8498 764.06 91.7458L763.305 91.0906L762.55 90.4354C760.606 92.676 758.942 95.2148 757.537 97.9271L758.425 98.387ZM763.305 91.0906L764.061 91.7451C766.66 88.7427 769.718 86.2948 773.08 84.4793L772.605 83.5993L772.13 82.7194C768.551 84.6516 765.304 87.2531 762.549 90.4361L763.305 91.0906ZM772.605 83.5993L773.548 83.9325C774.665 80.7711 775.277 77.4126 775.277 73.9565H774.277H773.277C773.277 77.1749 772.707 80.3085 771.662 83.2662L772.605 83.5993ZM774.277 73.9565H775.277C775.277 69.9164 772.249 66.4726 768.347 66.4726V67.4726V68.4726C770.981 68.4726 773.277 70.8494 773.277 73.9565H774.277ZM768.347 67.4726V66.4726C766.47 66.4726 764.711 67.2774 763.41 68.7009L764.149 69.3755L764.887 70.0501C765.829 69.0193 767.061 68.4726 768.347 68.4726V67.4726ZM764.149 69.3755L763.411 68.7002L758.769 73.7703L759.506 74.4456L760.244 75.121L764.886 70.0508L764.149 69.3755ZM759.506 74.4456L760.243 73.77L755.601 68.704L754.864 69.3796L754.126 70.0552L758.769 75.1213L759.506 74.4456ZM754.864 69.3796L755.602 68.705C754.301 67.282 752.548 66.4767 750.666 66.4767V67.4767V68.4767C751.956 68.4767 753.183 69.023 754.126 70.0542L754.864 69.3796ZM750.666 67.4767V66.4767C746.758 66.4767 743.735 69.9165 743.735 73.9606H744.735H745.735C745.735 70.8492 748.027 68.4767 750.666 68.4767V67.4767ZM744.735 73.9606H743.735C743.735 81.7588 746.699 89.119 752.085 94.6761L752.803 93.9801L753.521 93.2842C748.5 88.104 745.735 81.2445 745.735 73.9606H744.735ZM752.803 93.9801L752.084 94.6756C753.833 96.4824 755.814 97.9718 757.905 99.2453L758.425 98.3912L758.945 97.537C756.965 96.3314 755.127 94.9437 753.521 93.2847L752.803 93.9801ZM728.424 108.411L727.685 107.737C726.389 109.155 725.681 111.028 725.681 112.996H726.681H727.681C727.681 111.508 728.215 110.122 729.162 109.086L728.424 108.411ZM726.681 112.996H725.681C725.681 117.041 728.709 120.48 732.611 120.48V119.48V118.48C729.977 118.48 727.681 116.107 727.681 112.996H726.681ZM732.611 119.48V120.48C739.83 120.48 746.604 117.202 751.69 111.321L750.934 110.667L750.177 110.012C745.433 115.499 739.194 118.48 732.611 118.48V119.48ZM750.934 110.667L751.689 111.322C753.346 109.413 754.703 107.259 755.866 104.977L754.975 104.523L754.084 104.069C752.974 106.247 751.703 108.255 750.178 110.011L750.934 110.667ZM754.975 104.523L755.501 103.672C753.129 102.206 750.942 100.491 749.016 98.4965L748.297 99.1913L747.577 99.886C749.632 102.013 751.951 103.829 754.449 105.373L754.975 104.523ZM748.297 99.1913L749.015 98.4951C746.265 95.6598 744.02 92.3081 742.353 88.6183L741.442 89.0302L740.53 89.442C742.288 93.3306 744.66 96.8773 747.579 99.8874L748.297 99.1913ZM741.442 89.0302L741.831 88.1089C738.918 86.8792 735.816 86.2019 732.616 86.2019V87.2019V88.2019C735.53 88.2019 738.368 88.8181 741.053 89.9514L741.442 89.0302ZM732.616 87.2019V86.2019C728.714 86.2019 725.686 89.6412 725.686 93.6858H726.686H727.686C727.686 90.575 729.982 88.2019 732.616 88.2019V87.2019ZM726.686 93.6858H725.686C725.686 95.653 726.388 97.5262 727.691 98.9501L728.429 98.2751L729.166 97.6C728.216 96.5614 727.686 95.1761 727.686 93.6858H726.686ZM728.429 98.2751L727.691 98.95L732.328 104.02L733.066 103.345L733.804 102.67L729.166 97.6002L728.429 98.2751ZM733.066 103.345L732.328 102.67L727.691 107.741L728.429 108.415L729.166 109.09L733.804 104.02L733.066 103.345ZM728.429 108.415L729.063 107.642L729.058 107.638L728.424 108.411L727.789 109.184L727.794 109.188L728.429 108.415Z" fill="white" mask="url(#path-10-inside-1_4014_162)"/>
</g>
</svg>
